{"title":"Alpha and Omega 5 Family Vacation 2015 1080p WEB-DL H264-DMG","uid":13863334,"size":1861720741,"categoryP":"video","categoryS":"hd___movies","magnet":"?xt=urn:btih:fd1ac2f2548f0a7aa23c7b71a98c4f5fc2aa4d86&amp;dn=Alpha+and+Omega+5+Family+Vacation+2015+1080p+WEB-DL+H264-DMG&amp;tr=udp%3A%2F%2Ftracker.leechers-paradise.org%3A6969&amp;tr=udp%3A%2F%2Fzer0day.ch%3A1337&amp;tr=udp%3A%2F%2Fopen.demonii.com%3A1337&amp;tr=udp%3A%2F%2Ftracker.coppersurfer.tk%3A6969&amp;tr=udp%3A%2F%2Fexodus.desync.com%3A6969","seeders":0,"leechers":1,"uploader":"dustlab","files":1,"time":1458047678,"description":"Movie name                               : Alpha and Omega 5: Family Vacation 2015 1080p WEB-DL DD5.1-DMG\r\nFile size                                : 1.73 GiB\r\nDuration                                 : 43mn 29s\r\nSource                                   : iTunes\r\n\r\nVideo\r\nID                                       : 1\r\nFormat                                   : AVC\r\nFormat/Info                              : Advanced Video Codec\r\nFormat profile                           :   \r\nFormat settings, CABAC                   : Yes\r\nFormat settings, ReFrames                : 4 frames\r\nCodec ID                                 : V_MPEG4/ISO/AVC\r\nDuration                                 : 43mn 29s\r\nBit rate                                 : 5 321 Kbps\r\nWidth                                    : 1 912 pixels\r\nHeight                                   : 1 072 pixels\r\nDisplay aspect ratio                     : 16:9\r\nFrame rate mode                          : Constant\r\nFrame rate                               : 23.976 (23976/1000) fps\r\nColor space                              : YUV\r\nChroma subsampling                       : 4:2:0\r\nBit depth                                : 8 bits\r\nScan type                                : Progressive\r\nBits/(Pixel*Frame)                       : 0.108\r\nStream size                              : 1.62 GiB (93%)\r\nTitle                                    : Alpha and Omega 5: Family Vacation 2015 1080p WEB-DL DD5.1-DMG\r\nLanguage                                 : English\r\nDefault                                  : Yes\r\nForced                                   : No\r\nColor range                              : Limited\r\nColor primaries                          : BT.709\r\nTransfer characteristics                 : BT.709\r\nMatrix coefficients                      : BT.709\r\n\r\nAudio\r\nID                                       : 2\r\nFormat                                   : AC-3\r\nFormat/Info                              : Audio Coding 3\r\nMode extension                           : CM (complete main)\r\nFormat settings, Endianness              : Big\r\nCodec ID                                 : A_AC3\r\nDuration                                 : 43mn 29s\r\nBit rate mode                            : Constant\r\nBit rate                                 : 384 Kbps\r\nChannel(s)                               : 6 channels\r\nChannel positions                        : Front: L C R, Side: L R, LFE\r\nSampling rate                            : 48.0 KHz\r\nFrame rate                               : 31.250 fps (1536 spf)\r\nCompression mode                         : Lossy\r\nStream size                              : 119 MiB (7%)\r\nTitle                                    : Alpha and Omega 5: Family Vacation 2015 1080p WEB-DL DD5.1-DMG\r\nLanguage                                 : English\r\nDefault                                  : No\r\nForced                                   : No\r\n\r\nMenu\r\n00:00:00.000                             : en:1\r\n00:01:04.000                             : en:2\r\n00:08:45.000                             : en:3\r\n00:20:42.000                             : en:4\r\n00:29:42.000                             : en:5\r\n00:38:45.000                             : en:6\r\n\r\nScreenshots\r\n \nhttp://imgchicken.com/images/79185657900343443321.jpg \nhttp://imgchicken.com/images/68949982352747331674.jpg \nhttp://imgchicken.com/images/73233565216948736027.jpg","torrent":{"xt":"urn:btih:fd1ac2f2548f0a7aa23c7b71a98c4f5fc2aa4d86","amp;dn":"Alpha+and+Omega+5+Family+Vacation+2015+1080p+WEB-DL+H264-DMG","amp;tr":["udp%3A%2F%2Ftracker.leechers-paradise.org%3A6969","udp%3A%2F%2Fzer0day.ch%3A1337","udp%3A%2F%2Fopen.demonii.com%3A1337","udp%3A%2F%2Ftracker.coppersurfer.tk%3A6969","udp%3A%2F%2Fexodus.desync.com%3A6969"],"infoHash":"fd1ac2f2548f0a7aa23c7b71a98c4f5fc2aa4d86","infoHashBuffer":{"type":"Buffer","data":[253,26,194,242,84,143,10,122,162,60,123,113,169,140,79,95,194,170,77,134]},"announce":[],"urlList":[]}}